<svg width="34" height="34" viewBox="0 0 34 34" fill="none" xmlns="http://www.w3.org/2000/svg">
<path d="M17.0002 6.6665C19.5774 6.66668 21.6663 8.75628 21.6663 11.3335C21.6661 13.9106 19.5773 15.9993 17.0002 15.9995C14.423 15.9995 12.3334 13.9107 12.3333 11.3335C12.3333 8.75617 14.4229 6.6665 17.0002 6.6665Z" stroke="white" stroke-width="2" stroke-linecap="round"/>
<path d="M21.2687 11.125C21.6996 10.3785 22.4095 9.83383 23.2421 9.61074C24.0747 9.38765 24.9618 9.50444 25.7083 9.93542C26.4547 10.3664 26.9994 11.0763 27.2225 11.9088C27.4456 12.7414 27.3288 13.6285 26.8978 14.375C26.4669 15.1215 25.757 15.6662 24.9244 15.8893C24.0918 16.1123 23.2047 15.9956 22.4583 15.5646C21.7118 15.1336 21.1671 14.4237 20.944 13.5912C20.7209 12.7586 20.8377 11.8715 21.2687 11.125L21.2687 11.125Z" stroke="white" stroke-width="2"/>
<path d="M7.10217 11.125C7.53314 10.3785 8.243 9.83383 9.07559 9.61074C9.90817 9.38765 10.7953 9.50444 11.5417 9.93542C12.2882 10.3664 12.8329 11.0763 13.056 11.9088C13.2791 12.7414 13.1623 13.6285 12.7313 14.375C12.3004 15.1215 11.5905 15.6662 10.7579 15.8893C9.92533 16.1123 9.03822 15.9956 8.29175 15.5646C7.54527 15.1336 7.00058 14.4237 6.77749 13.5912C6.5544 12.7586 6.67119 11.8715 7.10217 11.125L7.10217 11.125Z" stroke="white" stroke-width="2"/>
<path d="M24.0835 19.833L24.0835 18.833H24.0835V19.833ZM29.4995 24.3965L30.458 24.1113L30.458 24.1113L29.4995 24.3965ZM23.9146 25.5L22.9342 25.6975L23.0959 26.5H23.9146V25.5ZM20.939 20.8398L20.3341 20.0435L19.1775 20.9221L20.4109 21.689L20.939 20.8398ZM24.0835 19.833L24.0835 20.833C25.5473 20.8331 26.5191 21.4178 27.2004 22.1685C27.9079 22.9483 28.3175 23.9303 28.541 24.6817L29.4995 24.3965L30.458 24.1113C30.191 23.2141 29.6704 21.9144 28.6815 20.8246C27.6663 19.7058 26.1754 18.8331 24.0835 18.833L24.0835 19.833ZM29.4995 24.3965L28.541 24.6817C28.5367 24.6672 28.533 24.6388 28.5404 24.6042C28.5473 24.5717 28.5612 24.5469 28.5744 24.5307C28.6003 24.4992 28.6223 24.5 28.6167 24.5V25.5V26.5C29.7839 26.5 30.8487 25.4246 30.458 24.1113L29.4995 24.3965ZM28.6167 25.5V24.5H23.9146V25.5V26.5H28.6167V25.5ZM23.9146 25.5L24.8949 25.3025C24.5952 23.8149 23.7725 21.4243 21.467 19.9906L20.939 20.8398L20.4109 21.689C22.0266 22.6937 22.6782 24.4263 22.9342 25.6975L23.9146 25.5ZM20.939 20.8398L21.5439 21.6361C22.1598 21.1682 22.9736 20.833 24.0835 20.833V19.833V18.833C22.5298 18.833 21.2925 19.3155 20.3341 20.0435L20.939 20.8398Z" fill="white"/>
<path d="M9.91675 19.833L9.91676 18.833H9.91675V19.833ZM13.0603 20.8398L13.5884 21.689L14.8218 20.9219L13.6651 20.0435L13.0603 20.8398ZM10.0847 25.5V26.5H10.9034L11.065 25.6974L10.0847 25.5ZM5.38257 25.5L5.38238 26.5H5.38257V25.5ZM4.49976 24.3965L3.54128 24.1113L3.54127 24.1113L4.49976 24.3965ZM9.91675 19.833L9.91674 20.833C11.0261 20.833 11.8393 21.1683 12.4555 21.6362L13.0603 20.8398L13.6651 20.0435C12.707 19.3158 11.4704 18.833 9.91676 18.833L9.91675 19.833ZM13.0603 20.8398L12.5322 19.9907C10.2271 21.4243 9.40403 23.8149 9.1044 25.3026L10.0847 25.5L11.065 25.6974C11.321 24.4265 11.9729 22.6938 13.5884 21.689L13.0603 20.8398ZM10.0847 25.5V24.5H5.38257V25.5V26.5H10.0847V25.5ZM5.38257 25.5L5.38276 24.5C5.37715 24.5 5.39909 24.4991 5.42489 24.5306C5.43811 24.5468 5.45199 24.5715 5.45891 24.6041C5.46625 24.6386 5.46256 24.6671 5.45824 24.6816L4.49976 24.3965L3.54127 24.1113C3.15056 25.4247 4.21562 26.4998 5.38238 26.5L5.38257 25.5ZM4.49976 24.3965L5.45823 24.6817C5.68176 23.9304 6.09146 22.9483 6.79919 22.1686C7.48066 21.4177 8.45272 20.833 9.91675 20.833V19.833V18.833C7.82478 18.833 6.33361 19.7057 5.31822 20.8244C4.32909 21.9142 3.80828 23.2139 3.54128 24.1113L4.49976 24.3965Z" fill="white"/>
<path d="M17.0001 19.8335C22.4166 19.8335 23.6912 23.9754 23.9911 25.9247C24.0751 26.4706 23.6357 26.9168 23.0834 26.9168H10.9167C10.3645 26.9168 9.92506 26.4706 10.009 25.9247C10.309 23.9754 11.5836 19.8335 17.0001 19.8335Z" stroke="white" stroke-width="2" stroke-linecap="round"/>
</svg>
