<svg width="34" height="34" viewBox="0 0 34 34" fill="none" xmlns="http://www.w3.org/2000/svg">
<path d="M15.8256 3.97266C16.5191 3.43992 17.4806 3.44003 18.1742 3.97266L18.3187 4.09473L18.7933 4.5459C20.0258 5.73361 22.0731 7.84953 23.9115 10.4258C25.9911 13.3402 27.9163 16.9977 27.9164 20.6426C27.9164 26.303 22.9475 30.7498 17.0004 30.75C11.0531 30.75 6.08337 26.3031 6.08337 20.6426C6.08347 16.9977 8.00863 13.3402 10.0883 10.4258C12.1892 7.48153 14.5632 5.13808 15.682 4.09473L15.8256 3.97266Z" stroke="white" stroke-width="2"/>
<path d="M17 25.4998C16.2559 25.4998 15.519 25.3533 14.8315 25.0685C14.144 24.7837 13.5193 24.3663 12.9931 23.8401C12.4669 23.3139 12.0495 22.6892 11.7647 22.0017C11.4799 21.3142 11.3334 20.5773 11.3334 19.8332" stroke="white" stroke-width="2" stroke-linecap="round"/>
</svg>
