<svg width="38" height="38" viewBox="0 0 38 38" fill="none" xmlns="http://www.w3.org/2000/svg">
<path d="M32.7644 27.4382C33.3302 25.3269 33.4026 23.1137 32.9762 20.97C32.5498 18.8262 31.6359 16.8092 30.3053 15.0751C28.9747 13.3411 27.263 11.9363 25.3026 10.9696C23.3423 10.0028 21.1858 9.5 19 9.5C16.8142 9.5 14.6577 10.0028 12.6974 10.9696C10.737 11.9363 9.02533 13.3411 7.69471 15.0751C6.3641 16.8092 5.45023 18.8262 5.02381 20.97C4.59739 23.1137 4.66984 25.3269 5.23556 27.4382" stroke="white" stroke-width="2" stroke-linecap="round"/>
<path d="M20.2123 24.6718C20.9842 25.7949 20.4414 27.5084 19 28.4989C17.5586 29.4894 15.7645 29.3819 14.9927 28.2587C14.083 26.9351 10.7069 18.8445 9.09995 14.9418C8.89588 14.4462 9.50344 14.0287 9.89298 14.3969C12.9602 17.296 19.3027 23.3481 20.2123 24.6718Z" stroke="white" stroke-width="2"/>
<path d="M19 9.5V12.6667" stroke="white" stroke-width="2" stroke-linecap="round"/>
<path d="M8.92358 13.6733L11.1628 15.9125" stroke="white" stroke-width="2" stroke-linecap="round"/>
<path d="M29.0764 13.6733L26.8372 15.9125" stroke="white" stroke-width="2" stroke-linecap="round"/>
<path d="M32.7645 27.4375L29.7058 26.6179" stroke="white" stroke-width="2" stroke-linecap="round"/>
<path d="M5.23547 27.4375L8.29424 26.6179" stroke="white" stroke-width="2" stroke-linecap="round"/>
</svg>
